<svg width="615" height="263" viewBox="0 0 615 263" fill="none" xmlns="http://www.w3.org/2000/svg">
<path d="M614.809 17.6032C614.825 15.2908 614.381 12.9982 613.502 10.8587C612.623 8.71913 611.327 6.77534 609.689 5.14019C608.052 3.50503 606.105 2.21113 603.962 1.33371C601.819 0.456281 599.522 0.0127461 597.206 0.0290027H333.414L307.607 42.8183C298.791 28.2393 281.586 0.0290027 281.586 0.0290027H18.6203C16.2405 -0.107673 13.8577 0.239718 11.6164 1.04997C9.3751 1.86022 7.32195 3.11648 5.58152 4.74266C3.84109 6.36883 2.44959 8.33096 1.49144 10.5101C0.533292 12.6893 0.0284395 15.04 0.00750023 17.4198V195.056V244.417C-0.0624809 246.843 0.357857 249.258 1.2434 251.518C2.12894 253.778 3.46159 255.836 5.16168 257.571C6.86176 259.305 8.89446 260.68 11.1384 261.612C13.3824 262.545 15.7917 263.017 18.2223 263H254.769C254.769 263 295.607 195.454 307.607 175.679C319.638 195.423 360.415 262.908 360.415 262.908H596.778C599.208 262.925 601.618 262.454 603.862 261.521C606.106 260.588 608.138 259.213 609.838 257.479C611.538 255.745 612.871 253.686 613.757 251.426C614.642 249.166 615.062 246.751 614.993 244.325L614.809 17.6032ZM466.581 95.7241V20.2011C466.48 18.8535 466.658 17.4996 467.104 16.2237C467.55 14.9479 468.255 13.7773 469.174 12.7852C470.093 11.7931 471.207 11.0007 472.446 10.4571C473.685 9.9136 475.023 9.6307 476.377 9.62607H597.268C599.443 9.62607 601.53 10.489 603.069 12.0251C604.607 13.5613 605.472 15.6447 605.472 17.8171V59.7812H522.817C522.05 59.6908 521.273 59.763 520.536 59.9933C519.8 60.2236 519.12 60.6067 518.542 61.1174C517.964 61.6282 517.501 62.255 517.182 62.957C516.864 63.6591 516.697 64.4203 516.694 65.1909C516.694 69.1948 521.286 70.7842 521.286 70.7842L599.349 97.5579C606.145 100.37 605.472 104.74 605.472 104.74V193.65H466.581V145.085H548.226C549.038 145.115 549.847 144.977 550.604 144.68C551.36 144.384 552.047 143.935 552.622 143.361C553.196 142.787 553.646 142.101 553.943 141.346C554.24 140.591 554.378 139.783 554.348 138.972C554.348 134.387 547.552 132.37 547.552 132.37C547.552 132.37 486.724 112.198 475.703 107.583C464.683 102.968 466.581 95.7241 466.581 95.7241ZM404.13 9.59547H454.335V193.436H404.069L404.13 9.59547ZM128.613 9.59547H211.054V60.1479H172.298V77.1414H207.931V125.371H172.298V143.556H212.921V193.711H128.46L128.613 9.59547ZM18.7427 9.59547H53.3048V77.1414H73.9074V9.59547H117.592V193.436H73.8461V125.096H53.3048V193.436H9.58939V17.3893C9.40571 17.3893 9.40572 9.59547 18.5896 9.59547H18.7427ZM605.594 244.57C605.653 245.758 605.467 246.946 605.05 248.061C604.632 249.175 603.991 250.193 603.165 251.051C602.34 251.91 601.348 252.591 600.249 253.053C599.151 253.515 597.97 253.748 596.778 253.739H365.833L307.668 157.616L249.228 253.739H18.1916C16.9998 253.748 15.8184 253.515 14.72 253.053C13.6216 252.591 12.6293 251.91 11.8039 251.051C10.9785 250.193 10.3373 249.175 9.91964 248.061C9.502 246.946 9.31669 245.758 9.37508 244.57V204.409H220.605L278.249 109.294L217.819 9.59547H276.443L307.607 61.1871L338.618 9.62607H397.242L336.996 109.325L394.64 204.439H605.87L605.594 244.57Z" fill="#FF1F26"/>
</svg>
