<svg width="262" height="199" viewBox="0 0 262 199" fill="none" xmlns="http://www.w3.org/2000/svg">
<path d="M27.5 0.38161C39 -2.61834 63 12.3816 87.5 34.3816C86.5001 32.3818 84.2001 27.6817 83 24.8816C97.4853 19.9261 119.781 19.1181 130.5 19.3416C141.219 19.1181 163.515 19.9261 178 24.8816C176.8 27.6817 174.5 32.3818 173.5 34.3816C198 12.3816 222 -2.61834 233.5 0.38161C245 3.38182 239.5 40.3817 229 54.8816C235 34.3819 240 8.88213 232 5.88161C224 2.88161 203.5 12.3816 188.5 34.3816C221.5 54.8816 227.5 86.3816 241 95.8816C233.8 95.8816 215.667 92.5483 207.5 90.8816L180 81.3816L148.5 104.882C145.5 103.048 142.3 92.881 153.5 66.8816C140 81.3815 140 96.8817 140 104.882C140 112.881 144.5 116.882 144 120.382C143.512 123.797 141.595 122.453 141.504 154.002C138.478 152.418 134.885 151.5 131.03 151.5C126.715 151.5 122.726 152.65 119.496 154.597C119.427 122.436 117.491 123.818 117 120.382C116.5 116.882 121 112.881 121 104.882C121 96.8817 121 81.3815 107.5 66.8816C118.7 92.881 115.5 103.048 112.5 104.882L81 81.3816L53.5 90.8816C45.3332 92.5483 27.1999 95.8816 20 95.8816C33.4999 86.3816 39.5004 54.8816 72.5 34.3816C57.5002 12.3816 37 2.88161 29 5.88161C21.0004 8.88213 26.0002 34.3819 32 54.8816C21.5 40.3817 16.0001 3.38182 27.5 0.38161Z" fill="#3291C9"/>
<path d="M115.53 134C120.244 134 122.512 142.778 123.804 152.635C116.613 154.991 111.531 160.759 111.531 167.5C111.531 175.251 118.25 181.714 127.169 183.185C126.687 185.557 124.023 186.5 118.53 186.5C110.529 186.499 86.0299 167 87.0297 158C88.0297 149 105.03 134.501 115.53 134Z" fill="white"/>
<path d="M146.724 134C157.224 134.501 174.224 149 175.224 158C176.223 167 151.724 186.499 143.724 186.5C138.206 186.5 135.543 185.548 135.077 183.153C143.905 181.625 150.531 175.198 150.531 167.5C150.531 160.816 145.535 155.091 138.44 152.697C139.731 142.816 142 134 146.724 134Z" fill="white"/>
<path d="M130.732 158C136.316 158 141.251 160.185 144.236 163.529C144.767 164.123 144.31 165 143.512 165H117.952C117.155 165 116.698 164.123 117.228 163.529C120.214 160.185 125.149 158 130.732 158Z" fill="white"/>
<path d="M148.333 191C145.171 195.749 139.118 198.961 132.167 198.961C125.216 198.961 119.161 195.749 116 191C120.538 192.862 126.125 193.961 132.167 193.961C138.209 193.961 143.795 192.862 148.333 191Z" fill="white"/>
<path d="M27.5 114.58C35.1 131.78 64 151.413 77.5 159.08C39.9 145.88 14.1667 128.246 6 121.08H18.5C13.3333 118.08 2.4 111.28 0 108.08C13.2 106.08 29.8333 94.2465 36.5 88.5798C36.1667 88.5798 34.1 88.2798 28.5 87.0798C31.5 87.5798 37.5 86.0798 47 79.5798C54.6 74.3798 66.5 73.0798 71.5 73.0798C71.3333 71.9131 69.5 68.7798 63.5 65.5798C84.7 61.5798 99 79.2465 103.5 88.5798V73.0798C122.5 93.0798 113.5 109.58 110 110.08C106.5 110.58 84.5 88.5798 74 88.5798C63.5 88.5798 58.5 96.5798 27.5 114.58Z" fill="white"/>
<path d="M233.713 114.58C226.113 131.78 197.213 151.413 183.713 159.08C221.313 145.88 247.046 128.246 255.213 121.08H242.713C247.88 118.08 258.813 111.28 261.213 108.08C248.013 106.08 231.38 94.2465 224.713 88.5798C225.046 88.5798 227.113 88.2798 232.713 87.0798C229.713 87.5798 223.713 86.0798 214.213 79.5798C206.613 74.3798 194.713 73.0798 189.713 73.0798C189.88 71.9131 191.713 68.7798 197.713 65.5798C176.513 61.5798 162.213 79.2465 157.713 88.5798V73.0798C138.713 93.0798 147.713 109.58 151.213 110.08C154.713 110.58 176.713 88.5798 187.213 88.5798C197.713 88.5798 202.713 96.5798 233.713 114.58Z" fill="white"/>
<path d="M180.688 99C181.476 100.603 181.915 102.375 181.915 104.239C181.915 111.419 175.423 117.239 167.415 117.239C165.501 117.239 163.673 116.906 162 116.302L162.85 113.122C163.359 113.198 163.882 113.239 164.415 113.239C169.662 113.239 173.915 109.434 173.915 104.739C173.915 104.129 173.841 103.534 173.704 102.96L180.688 99Z" fill="white"/>
<path d="M81.2275 99C80.4392 100.603 80 102.375 80 104.239C80 111.419 86.4919 117.239 94.5 117.239C96.4144 117.239 98.2419 116.906 99.915 116.302L99.0654 113.122C98.5561 113.198 98.0333 113.239 97.5 113.239C92.2533 113.239 88 109.434 88 104.739C88 104.129 88.0743 103.534 88.2109 102.96L81.2275 99Z" fill="white"/>
</svg>
